<svg xmlns="http://www.w3.org/2000/svg" id="Layer_2" viewBox="0 0 100 136.42"><g id="Layer_1-2"><g><path d="M99.54,40.63c2.54-19.01-6.02-33.86-9.82-39.36-.83-1.2-2.42-1.61-3.73-.96-1.31,.65-1.94,2.16-1.48,3.55,1.35,4.08,2.45,10.29,.04,16.7-1.07,2.86-2.29,6.09-5.56,7.73-2.47,1.24-5.1,1.05-6.96,.63v-8.48l7.52-3.13c1.09-.45,1.8-1.52,1.8-2.71s-.71-2.25-1.8-2.71L51.57,.23c-.72-.3-1.54-.3-2.26,0L21.34,11.88c-1.09,.46-1.81,1.53-1.81,2.71s.72,2.25,1.81,2.71l7.51,3.13v8.25c-1.85,.55-4.94,1.06-7.84-.4-1.64-.82-2.76-2.05-3.6-3.41-.85-1.37-1.42-2.89-1.96-4.32-2.41-6.41-1.31-12.62,.04-16.7,.46-1.39-.17-2.9-1.48-3.55-1.31-.65-2.89-.24-3.72,.96C6.48,6.77-2.08,21.62,.46,40.63c1.2,8.96,7.94,14.38,12.87,18.34,1.21,.97,2.37,1.9,3.18,2.69-.64,3.14-2.02,10.8-2.08,19.56C2.78,87.56,.6,97.09,.5,97.53l.1,.02c-.22,.63-.23,1.34,.03,2.02,.59,1.51,2.29,2.26,3.8,1.68,2.77-1.08,5.67-1.8,8.62-2.15,1.95-.24,3.92-.31,5.89-.23-.15,3.83-.1,7.68,.15,11.49,.37,5.62,1.17,11.26,2.4,16.76,.25,1.1,1.1,1.97,2.2,2.23,1.1,.26,2.25-.14,2.95-1.02,1.94-2.41,4.15-4.61,6.55-6.55,1.2-.97,2.46-1.88,3.77-2.72,1.05,2.27,2.24,4.49,3.54,6.62,2.12,3.46,4.57,6.74,7.31,9.75,0,0,0,0,0,0,0,0,0,.01,0,.01,.02,.03,.05,.05,.08,.08,.04,.04,.08,.09,.12,.12,0,0,.01,0,.02,.01,.03,.03,.06,.05,.09,.08,.05,.04,.09,.08,.14,.11,.03,.02,.07,.05,.11,.07,.04,.03,.09,.06,.14,.09,.03,.02,.08,.04,.11,.06,.05,.02,.1,.05,.15,.08,.04,.01,.07,.03,.11,.05,.06,.02,.11,.04,.17,.06,.03,0,.07,.02,.1,.03,.06,.02,.12,.03,.18,.05,.03,0,.07,.01,.09,.02,.07,.01,.14,.02,.21,.03,.02,0,.05,0,.08,0,.09,0,.19,.01,.28,.01s.19,0,.28-.01c.03,0,.05,0,.08,0,.07,0,.13-.02,.2-.03,.03,0,.06-.01,.09-.02,.06-.01,.12-.03,.18-.05,.04,0,.07-.02,.1-.03,.06-.02,.11-.04,.17-.06,.04-.02,.07-.03,.11-.05,.05-.02,.1-.05,.15-.08,.04-.02,.07-.04,.11-.06,.05-.03,.1-.06,.14-.09,.03-.02,.07-.05,.1-.07,.05-.03,.09-.07,.14-.11,.03-.03,.07-.05,.1-.08,0,0,.01,0,.02-.01,.04-.04,.09-.09,.12-.13,.02-.02,.05-.04,.07-.07,0,0,0,0,0,0,0,0,0,0,.01-.01,2.73-3,5.19-6.28,7.3-9.75,1.3-2.13,2.49-4.35,3.54-6.62,1.31,.84,2.57,1.75,3.77,2.72,2.41,1.94,4.61,4.14,6.55,6.55,.71,.88,1.86,1.27,2.96,1.02,1.1-.26,1.95-1.12,2.2-2.23,1.22-5.5,2.03-11.14,2.4-16.76,.25-3.81,.3-7.66,.15-11.49,1.97-.09,3.94,0,5.89,.23,2.95,.35,5.85,1.08,8.62,2.15,1.52,.58,3.22-.17,3.8-1.68,.26-.68,.25-1.39,.03-2.02l.1-.02c-.1-.45-2.28-9.97-13.93-16.3-.06-8.76-1.43-16.42-2.08-19.56,.81-.79,1.97-1.72,3.18-2.69,4.92-3.96,11.67-9.39,12.87-18.34ZM50.44,6.12l20.34,8.48-20.34,8.47L30.1,14.6,50.44,6.12Zm15.71,16.77v6.48c-.08,.13-.15,.26-.2,.4-.02,.06-.04,.1-.06,.16l-15.45,7.08-15.71-7.2v-6.92l14.58,6.08c.36,.15,.74,.23,1.13,.23s.77-.08,1.13-.23l14.58-6.08ZM27.39,40.66c1.22-2.07,2.66-4.02,4.28-5.8l17.55,8.04c.39,.18,.81,.27,1.22,.27s.84-.09,1.23-.27l17.03-7.8c1.49,1.67,2.83,3.49,3.97,5.42,.8,1.33-.16,3.03-1.71,3.05h-.03c-9.4,.17-16.69,3.69-20.93,6.4-4.24-2.7-11.52-6.23-20.93-6.4h-.03c-1.49-.02-2.41-1.62-1.65-2.91Zm1.53,8.78s.03,0,.05,0c9.21,.17,16.04,4.1,19.29,6.43,.52,.37,1.11,.55,1.7,.55,.01,0,.03,0,.04,0s.02,0,.04,0c.59,0,1.19-.18,1.7-.55,3.25-2.33,10.09-6.26,19.29-6.43,.01,0,.03,0,.05,0,3.29-.05,6.04,2.5,6.33,5.78,.04,.44,.07,.87,.09,1.31-2.99-.61-6.03-.81-9.07-.57-6.61,.5-9.81,2.62-12.14,4.17-.29,.19-.58,.38-.86,.57-.02,0-.03,.02-.05,.03-.05,.03-.09,.07-.15,.1-.03,.02-.06,.05-.09,.07-.05,.03-.09,.07-.13,.11-.03,.03-.06,.06-.09,.09-.04,.04-.07,.07-.1,.11-.03,.04-.07,.08-.1,.11-.03,.03-.06,.07-.08,.1-.04,.05-.07,.09-.1,.14-.02,.03-.04,.07-.06,.1-.03,.05-.06,.1-.09,.16,0,.02-.02,.03-.03,.05-.02,.04-.03,.08-.05,.12,0,0,0,.01,0,.02-3.01,6.19-.35,13.16-.03,13.94,.33,.82,.78,3.04-.05,4.27-.77,1.14-2.72,1.38-4.22,1.38s-3.45-.24-4.22-1.38c-.83-1.24-.38-3.45-.05-4.27,.31-.78,2.97-7.75-.03-13.94,0,0,0,0,0-.02-.01-.04-.03-.08-.05-.12,0-.01-.02-.03-.03-.05-.03-.05-.06-.1-.09-.16-.02-.03-.04-.07-.06-.1-.03-.05-.06-.09-.09-.14-.02-.03-.05-.07-.08-.1-.04-.04-.07-.08-.1-.12-.03-.03-.06-.07-.1-.1-.03-.03-.06-.06-.1-.09-.04-.04-.08-.08-.12-.11-.03-.02-.07-.05-.1-.08-.04-.03-.09-.07-.14-.09-.02-.01-.03-.02-.05-.03-.28-.18-.57-.37-.86-.57-2.33-1.55-5.54-3.67-12.14-4.17-2.99-.23-5.99-.05-8.93,.54,.02-.47,.06-.94,.1-1.41,.29-3.2,2.96-5.7,6.18-5.65Zm40.61,17l-.16-.08c-3.18-1.42-6.71-1.78-10.06-1.08,.01-.05,.03-.09,.05-.14,.06-.04,.12-.08,.18-.12,2.09-1.39,4.26-2.83,9.34-3.22,2.95-.22,5.91,.04,8.81,.79,.5,2.41,1.67,8.67,1.96,16.04-7.59-2.53-14.61-1.87-19.09-.89-.07-1.62-.45-3.07-.83-4.02-.32-.78-.53-1.54-.69-2.28,2.57-.95,5.43-.86,7.94,.27l.17,.07c1.48,.66,3.22,0,3.88-1.48,.66-1.48,0-3.22-1.48-3.88Zm-40.55,3.88c.66,1.48,2.4,2.14,3.88,1.49l.17-.08c2.51-1.13,5.37-1.21,7.94-.27-.15,.73-.37,1.5-.69,2.28-.38,.95-.76,2.4-.83,4.02-4.48-.98-11.5-1.64-19.09,.89,.28-7.24,1.42-13.42,1.93-15.92,.02-.04,.05-.09,.08-.13,2.88-.73,5.82-.99,8.76-.77,5.08,.39,7.24,1.82,9.33,3.22,.06,.04,.12,.08,.18,.12,.02,.05,.03,.09,.05,.14-3.36-.7-6.89-.34-10.06,1.08l-.16,.08c-1.48,.66-2.14,2.4-1.48,3.88ZM7.95,44.87c-.82-1.52-1.42-3.19-1.67-5.02-1.14-8.52,.23-16.12,2.31-22.2,.28,1.63,.72,3.29,1.35,4.97,1.24,3.28,3.1,8.24,8.42,10.91h0c1.91,.96,3.83,1.41,5.62,1.54-1.9,2.73-3.47,5.68-4.65,8.78,0,.03-.02,.07-.03,.1-1.89,5.01-8.81,5.63-11.37,.91Zm25.15,53.19c-.65,5.18-.09,10.49,1.61,15.49-1.81,1.11-3.56,2.33-5.21,3.67l-.03,.03c-1.51,1.22-3.76,.29-4-1.64-.23-1.87-.4-3.75-.52-5.62-.29-4.51-.29-9.09,0-13.61,.1-1.56-1.03-2.91-2.58-3.1-3.33-.4-6.7-.4-10.03,0-.01,0-.02,0-.03,0-1.32,.16-2.12-1.43-1.18-2.37,2.17-2.18,5.27-4.43,9.65-6.17,6.89-2.74,13.52-2.09,17.49-1.23-2.12,3.45-4.4,8.41-5.17,14.55Zm25.85,15.63s-.02,.04-.03,.06c-1.22,3.07-2.72,6.06-4.44,8.88-.01,.02-.03,.05-.04,.07-2.03,3.3-6.87,3.3-8.89,0-.01-.02-.03-.04-.04-.07-1.72-2.82-3.22-5.81-4.44-8.88,0-.02-.02-.04-.03-.06-1.41-3.31-2.91-8.58-2.12-14.9,.28-2.23,.8-4.28,1.44-6.12,1.19-3.4,4.53-5.56,8.12-5.26,.48,.04,.98,.06,1.51,.06s1.03-.02,1.51-.06c3.54-.3,6.88,1.77,8.07,5.12,.67,1.87,1.21,3.97,1.5,6.26,.79,6.33-.72,11.59-2.12,14.9Zm29.92-22.78c.93,.94,.13,2.53-1.19,2.37,0,0-.02,0-.03,0-3.33-.4-6.7-.4-10.03,0-1.55,.19-2.68,1.54-2.58,3.1,.29,4.52,.29,9.1,0,13.61-.12,1.88-.3,3.75-.52,5.62-.23,1.93-2.49,2.86-4,1.64l-.03-.03c-1.65-1.33-3.4-2.55-5.2-3.67,1.7-5,2.26-10.31,1.61-15.49-.77-6.14-3.06-11.1-5.17-14.55,3.97-.86,10.59-1.51,17.49,1.23,4.38,1.74,7.48,3.99,9.66,6.17Zm-8.05-46.95s-.02-.07-.04-.1c-1.17-3.1-2.75-6.06-4.65-8.79,1.76-.15,3.62-.6,5.49-1.53,5.33-2.68,7.19-7.63,8.43-10.91,.63-1.68,1.07-3.34,1.36-4.97,2.07,6.08,3.44,13.68,2.31,22.2-.25,1.83-.83,3.48-1.65,5-2.52,4.66-9.37,4.08-11.24-.89Z"></path><path d="M54.61,92.36c-.33,0-.65,.07-.97,.21l-.13,.06c-2.23,1-4.77,1-7,0l-.14-.06c-1.26-.57-2.77,.06-3.23,1.4-.41,1.18,.21,2.48,1.35,2.99l.06,.03c3.47,1.55,7.44,1.55,10.91,0l.06-.02c1.21-.54,1.82-1.96,1.29-3.17-.4-.9-1.27-1.43-2.19-1.43Z"></path></g></g></svg>