<svg xmlns="http://www.w3.org/2000/svg" id="Layer_2" viewBox="0 0 100 134.9"><defs><style>.cls-1{fill:#fff;}</style></defs><g id="Layer_1-2"><g><path class="cls-1" d="M92.71,98.75h-.04c-3.77-.46-7.59-.46-11.37,0-1.76,.21-3.04,1.74-2.92,3.51,.34,5.12,.34,10.31,0,15.42-.14,2.12-.34,4.25-.59,6.37-.26,2.19-2.81,3.23-4.53,1.85l-.04-.03c-1.87-1.51-3.84-2.89-5.9-4.15,1.93-5.67,2.57-11.68,1.83-17.55-.88-6.95-3.47-12.57-5.86-16.48,4.5-.97,12-1.72,19.82,1.39,4.96,1.97,8.48,4.52,10.94,6.99,1.06,1.07,.15,2.86-1.34,2.68"></path><path class="cls-1" d="M62.55,105c-.33-2.6-.95-4.97-1.7-7.1-1.35-3.79-5.13-6.14-9.14-5.8-.54,.05-1.11,.07-1.7,.07s-1.17-.02-1.7-.07c-4.08-.35-7.85,2.11-9.21,5.96-.73,2.09-1.32,4.41-1.63,6.94-.9,7.16,.81,13.14,2.4,16.88h0s.02,.05,.03,.08c1.39,3.48,3.08,6.86,5.03,10.06,.01,.03,.03,.05,.05,.08,2.3,3.74,7.78,3.74,10.08,0,.02-.02,.03-.05,.05-.08,1.95-3.19,3.65-6.58,5.03-10.06,0-.03,.02-.05,.03-.08,1.59-3.74,3.3-9.72,2.41-16.88m-6.3-2.08l-.07,.03c-3.93,1.76-8.42,1.77-12.35,0l-.08-.04c-1.29-.57-2-2.05-1.54-3.39,.53-1.52,2.23-2.23,3.66-1.59l.16,.07c2.53,1.13,5.41,1.13,7.94,0l.14-.06c.37-.16,.74-.24,1.11-.24,1.04,0,2.03,.6,2.48,1.62,.6,1.37-.09,2.98-1.46,3.59"></path><path class="cls-1" d="M32.68,121.73c-2.05,1.26-4.03,2.64-5.9,4.15l-.04,.04c-1.71,1.38-4.26,.33-4.52-1.86-.26-2.12-.45-4.25-.59-6.37-.34-5.11-.34-10.3,0-15.42,.12-1.77-1.17-3.3-2.93-3.52-3.77-.45-7.59-.45-11.36,0h-.04c-1.5,.19-2.41-1.61-1.34-2.68,2.46-2.48,5.97-5.02,10.93-6.99,7.81-3.11,15.32-2.36,19.82-1.39-2.39,3.91-4.99,9.53-5.86,16.48-.74,5.87-.1,11.88,1.83,17.55"></path><path class="cls-1" d="M39.77,74.04c-.17,.83-.42,1.7-.78,2.58-.43,1.08-.86,2.72-.95,4.55-5.07-1.1-13.03-1.86-21.63,1.01,.31-8.19,1.61-15.21,2.19-18.04,.03-.05,.06-.1,.09-.15,3.27-.83,6.6-1.12,9.92-.88,5.76,.44,8.21,2.07,10.58,3.64,.07,.05,.14,.09,.2,.14,.02,.05,.03,.1,.06,.15-3.81-.79-7.8-.38-11.4,1.23l-.19,.08c-1.68,.75-2.43,2.72-1.68,4.4,.75,1.68,2.72,2.43,4.4,1.68l.18-.09c2.86-1.28,6.09-1.37,9-.31"></path><path class="cls-1" d="M81.16,57.13c-3.39-.7-6.83-.92-10.28-.65-7.48,.57-11.11,2.97-13.76,4.73-.33,.22-.66,.43-.98,.64-.02,.01-.03,.02-.05,.03-.05,.04-.11,.08-.16,.12-.04,.02-.07,.05-.1,.08-.05,.03-.1,.08-.14,.12-.04,.04-.07,.07-.11,.11-.04,.04-.08,.08-.11,.12-.04,.05-.08,.09-.11,.13-.03,.04-.06,.08-.09,.11-.04,.05-.08,.1-.11,.16-.02,.04-.05,.08-.07,.12-.04,.06-.07,.12-.1,.17-.01,.02-.02,.04-.03,.06-.02,.04-.03,.09-.06,.13,0,0,0,.01-.01,.02-3.4,7.01-.39,14.91-.03,15.79,.38,.93,.88,3.44-.06,4.84-.87,1.29-3.08,1.56-4.78,1.56s-3.91-.27-4.78-1.56c-.94-1.4-.43-3.91-.06-4.84,.36-.88,3.37-8.78-.04-15.79,0,0,0-.01-.01-.02-.02-.05-.04-.09-.06-.13-.01-.02-.02-.04-.03-.06-.03-.06-.06-.12-.1-.17-.02-.04-.05-.08-.07-.12-.04-.05-.08-.1-.11-.16-.03-.03-.06-.08-.09-.11-.04-.05-.08-.09-.12-.13-.03-.04-.08-.08-.11-.12-.03-.04-.08-.07-.12-.11-.04-.04-.09-.08-.13-.12-.04-.03-.08-.06-.12-.09-.05-.04-.1-.08-.16-.11-.02-.01-.04-.03-.06-.04-.32-.2-.64-.42-.97-.64-2.65-1.76-6.27-4.16-13.76-4.73-3.39-.26-6.78-.05-10.12,.61,.02-.54,.06-1.07,.11-1.6,.34-3.63,3.36-6.45,7-6.4h.06c10.43,.19,18.17,4.65,21.86,7.29,.59,.42,1.26,.62,1.94,.62,.01,0,.03,0,.04,0s.03,0,.04,0c.67,0,1.35-.2,1.94-.62,3.69-2.64,11.43-7.1,21.86-7.29h.06c3.73-.06,6.83,2.83,7.17,6.55,.05,.49,.08,.99,.1,1.49"></path><path class="cls-1" d="M83.58,82.18c-8.6-2.87-16.56-2.12-21.63-1.01-.08-1.83-.51-3.47-.94-4.55-.36-.88-.61-1.75-.78-2.58,2.92-1.07,6.15-.97,9,.31l.19,.08c1.68,.75,3.65,0,4.4-1.68,.75-1.68,0-3.65-1.68-4.4l-.19-.08c-3.6-1.61-7.6-2.02-11.4-1.23,.01-.05,.03-.1,.05-.15,.07-.05,.14-.09,.21-.14,2.37-1.57,4.82-3.2,10.58-3.64,3.34-.25,6.69,.05,9.98,.89,.57,2.74,1.89,9.83,2.21,18.19"></path><path class="cls-1" d="M99.53,38.22c-.27,2.07-.94,3.94-1.87,5.66-2.86,5.29-10.62,4.62-12.74-1-.01-.04-.03-.08-.04-.12-1.33-3.51-3.11-6.86-5.27-9.96,1.99-.16,4.1-.67,6.22-1.73,6.04-3.03,8.15-8.65,9.55-12.37,.71-1.9,1.21-3.79,1.54-5.63,2.35,6.89,3.9,15.5,2.61,25.15"></path><path class="cls-1" d="M73.75,42.43h-.04c-10.66,.2-18.91,4.19-23.71,7.25-4.8-3.07-13.05-7.05-23.71-7.25h-.04c-1.69-.03-2.73-1.84-1.88-3.29,1.39-2.35,3.01-4.56,4.85-6.57l19.88,9.11c.44,.2,.92,.3,1.39,.3s.95-.1,1.39-.3l19.29-8.85c1.69,1.9,3.2,3.95,4.5,6.14,.9,1.51-.19,3.43-1.94,3.46"></path><path class="cls-1" d="M68.3,19v7.34c-.09,.15-.17,.3-.23,.45-.03,.06-.05,.12-.07,.19l-17.5,8.02-17.8-8.16v-7.84l16.52,6.89c.41,.17,.85,.25,1.28,.25s.88-.09,1.28-.25l16.52-6.89Z"></path><polygon class="cls-1" points="73.55 9.6 50.5 19.21 27.46 9.6 50.5 0 73.55 9.6"></polygon><path class="cls-1" d="M20.54,32.82c-2.15,3.09-3.93,6.43-5.26,9.94-.01,.04-.02,.08-.04,.12-2.14,5.68-9.98,6.37-12.88,1.03-.94-1.72-1.61-3.61-1.9-5.69C-.82,28.56,.73,19.95,3.08,13.07c.32,1.84,.82,3.73,1.54,5.63,1.4,3.72,3.51,9.34,9.54,12.37h0c2.17,1.09,4.34,1.59,6.37,1.75"></path></g></g></svg>